mtllib new-4.mtl
v -0.062359 0.580024 -0.043528
v -0.078948 0.580024 -0.003486
v -0.073291 0.580024 -0.024600
v -0.046900 0.580024 -0.058986
v -0.073291 0.701535 -0.024600
v -0.062359 0.701535 -0.043528
v -0.046900 0.701535 -0.058986
v -0.078950 0.580024 0.018376
v -0.078948 0.655580 -0.003486
v -0.073291 0.655580 -0.024600
v -0.062359 0.655580 -0.043528
v -0.046900 0.655580 -0.058986
v -0.027970 0.580024 -0.069914
v -0.078948 0.701535 -0.003486
v -0.073295 0.580024 0.039490
v -0.078950 0.655580 0.018376
v -0.027970 0.655580 -0.069914
v -0.006855 0.580024 -0.075570
v -0.078950 0.701535 0.018376
v -0.006855 0.655580 -0.075570
v -0.062366 0.580024 0.058420
v -0.073295 0.701535 0.039490
v -0.007393 0.654876 -0.079654
v -0.029546 0.654876 -0.073722
v -0.012902 0.641529 -0.121491
v 0.015006 0.580024 -0.075567
v -0.062366 0.655580 0.058420
v -0.073295 0.655580 0.039490
v -0.045691 0.641529 -0.112705
v 0.021052 0.641529 -0.121491
v 0.015006 0.655580 -0.075567
v -0.046908 0.655580 0.073879
v 0.015538 0.654876 -0.079652
v -0.049407 0.654876 -0.062254
v -0.025584 0.580024 -0.002161
v -0.046908 0.580024 0.073879
v -0.065634 0.654876 0.060927
v -0.077102 0.654876 0.041067
v -0.099116 0.641529 0.086611
v -0.049424 0.654876 0.077151
v 0.036120 0.580024 -0.069911
v -0.075094 0.641529 -0.095728
v 0.053847 0.641529 -0.112699
v 0.036120 0.655580 -0.069911
v -0.021152 0.487117 -0.012860
v -0.002434 0.580024 -0.023034
v -0.017695 0.487913 -0.020111
v -0.116085 0.641529 0.057211
v -0.075110 0.641529 0.110623
v -0.027980 0.655580 0.084811
v 0.037697 0.654876 -0.073717
v -0.065626 0.654876 -0.046033
v -0.022591 0.486330 -0.004946
v 0.001867 0.489872 -0.033416
v -0.012452 0.488666 -0.026224
v -0.083034 0.654876 0.018913
v -0.027980 0.580024 0.084811
v -0.029557 0.654876 0.088618
v -0.045707 0.641529 0.127600
v 0.055048 0.580024 -0.058978
v -0.099106 0.641529 -0.071722
v 0.057553 0.654876 -0.062246
v 0.055048 0.655580 -0.058978
v -0.023700 0.580024 0.021623
v -0.018533 0.394411 -0.019181
v -0.019982 0.394026 -0.011243
v 0.009959 0.490232 -0.034025
v -0.005780 0.489336 -0.030756
v -0.015063 0.394805 -0.026463
v -0.124871 0.641529 0.024422
v -0.006866 0.655580 0.090468
v 0.021025 0.580024 -0.018708
v -0.077097 0.654876 -0.026177
v 0.083250 0.641529 -0.095723
v -0.019320 0.393674 -0.003192
v 0.017957 0.490400 -0.032524
v 0.004527 0.395768 -0.039837
v 0.012622 0.395944 -0.040453
v -0.009811 0.395173 -0.032598
v -0.083033 0.654876 -0.004018
v -0.006866 0.580024 0.090468
v -0.007409 0.654876 0.094557
v -0.012912 0.641529 0.136392
v 0.070506 0.580024 -0.043520
v -0.116080 0.641529 -0.042326
v 0.073774 0.654876 -0.046027
v 0.107248 0.641529 -0.071714
v 0.070506 0.655580 -0.043520
v 0.025301 0.490358 -0.029028
v 0.031511 0.490115 -0.023782
v 0.027967 0.396011 -0.035465
v 0.020624 0.396028 -0.038960
v -0.003126 0.395508 -0.037161
v -0.124871 0.641529 -0.009532
v -0.005542 0.580024 0.037104
v 0.014995 0.655580 0.090470
v 0.014995 0.701535 0.090470
v 0.034555 0.580024 0.000946
v 0.034171 0.395885 -0.030203
v 0.014995 0.580024 0.090470
v 0.015533 0.654876 0.094554
v 0.021034 0.641529 0.136388
v 0.081435 0.580024 -0.024589
v 0.085242 0.654876 -0.026166
v 0.124225 0.641529 -0.042311
v -0.011125 0.301530 0.009122
v -0.014739 0.393306 0.007081
v 0.036140 0.489679 -0.017123
v 0.018243 0.580024 0.035220
v 0.036110 0.655580 0.084815
v 0.036110 0.580024 0.084815
v 0.038134 0.487594 0.006417
v 0.087090 0.655580 -0.003475
v -0.011945 0.393172 0.011103
v 0.037686 0.654876 0.088622
v 0.053831 0.641529 0.127605
v 0.087090 0.580024 -0.003475
v 0.034674 0.486799 0.013676
v 0.039570 0.488373 -0.001490
v 0.087088 0.655580 0.018386
v 0.091174 0.654876 -0.004013
v 0.133008 0.641529 -0.009514
v 0.038891 0.489085 -0.009521
v 0.055040 0.580024 0.073886
v 0.055040 0.701535 0.073886
v 0.055040 0.655580 0.073886
v 0.087090 0.701535 -0.003475
v 0.037289 0.394261 0.007363
v 0.040759 0.394646 0.000081
v 0.091169 0.654876 0.018926
v 0.041542 0.395383 -0.015919
v 0.057547 0.654876 0.077154
v 0.083231 0.641529 0.110636
v 0.087088 0.580024 0.018386
v 0.032029 0.393884 0.013495
v 0.042208 0.395031 -0.007857
v 0.085237 0.654876 0.041077
v 0.133008 0.641529 0.024440
v 0.087088 0.701535 0.018386
v 0.070499 0.580024 0.058428
v 0.073763 0.654876 0.060941
v 0.107243 0.641529 0.086631
v 0.124220 0.641529 0.057227
v 0.081431 0.580024 0.039500
v 0.081431 0.701535 0.039500
vn 0.000000 -1.000000 0.000000
vn -0.951306 -0.007877 -0.308148
vn -0.838713 0.018032 -0.544275
vn -0.998152 -0.033227 -0.050878
vn -0.206911 0.081476 -0.974961
vn -0.668417 0.042664 -0.742562
vn -0.976230 -0.056235 0.209313
vn -0.951419 -0.003874 -0.307874
vn -0.998629 -0.016340 -0.049726
vn 0.052086 0.093079 -0.994295
vn -0.452716 0.064300 -0.889333
vn -0.838454 0.008868 -0.544900
vn -0.887645 -0.075321 0.454327
vn -0.977038 -0.027654 0.211262
vn 0.306996 0.098386 -0.946612
vn -0.205741 0.040067 -0.977786
vn 0.053423 0.045773 -0.997522
vn -0.667805 0.020981 -0.744041
vn -0.739117 -0.089228 0.667641
vn 0.541127 0.097076 -0.835319
vn 0.739117 0.089228 -0.667641
vn 0.542521 0.047739 -0.838685
vn 0.308409 0.048383 -0.950022
vn -0.451792 0.031620 -0.891563
vn 0.740399 0.043879 -0.670734
vn -0.541127 -0.097076 0.835319
vn -0.740806 0.001580 0.671717
vn -0.821420 -0.040813 0.568861
vn 0.740806 -0.001580 -0.671717
vn -0.052086 -0.093079 0.994295
vn 0.206911 -0.081476 0.974961
vn 0.951306 0.007877 0.308148
vn -0.740399 -0.043879 0.670734
vn -0.306996 -0.098386 0.946612
vn 0.887645 0.075321 -0.454327
vn 0.452716 -0.064300 0.889333
vn 0.838713 -0.018032 0.544275
vn 0.998152 0.033227 0.050878
vn -0.542521 -0.047739 0.838685
vn 0.976230 0.056235 -0.209313
vn 0.205741 -0.040067 0.977786
vn -0.053423 -0.045773 0.997522
vn 0.668417 -0.042664 0.742562
vn 0.838454 -0.008868 0.544900
vn -0.308409 -0.048383 0.950022
vn 0.977038 0.027654 -0.211262
vn 0.451792 -0.031620 0.891563
vn 0.667805 -0.020981 0.744041
vn 0.951419 0.003874 0.307874
vn 0.998629 0.016340 0.049726
vn 0.000000 1.000000 0.000000
vn 0.821420 0.040813 -0.568861
vn -0.991436 0.000000 -0.130590
vn -0.923855 0.000000 -0.382743
vn -0.793314 0.000000 -0.608813
vn 0.793314 0.000000 0.608813
vn 0.923855 0.000000 0.382743
vn -0.608710 0.000000 -0.793393
vn 0.608710 0.000000 0.793393
vn 0.991436 0.000000 0.130590
vn -0.382624 0.000000 -0.923904
vn 0.382624 0.000000 0.923904
vn -0.991453 0.000000 0.130462
vn 0.991453 0.000000 -0.130462
vn -0.923904 0.000000 0.382624
vn 0.923904 0.000000 -0.382624
vn -0.130462 0.000000 -0.991453
vn 0.130462 0.000000 0.991453
vn -0.793393 0.000000 0.608710
vn 0.793393 0.000000 -0.608710
vn 0.130590 0.000000 -0.991436
vn -0.130590 0.000000 0.991436
vn -0.608813 0.000000 0.793314
vn 0.608813 0.000000 -0.793314
vn 0.382743 0.000000 -0.923855
vn -0.382743 0.000000 0.923855
vn 0.030722 -0.971877 0.233478
vn 0.090104 -0.971877 0.217571
vn -0.090104 0.971877 -0.217571
vn -0.030722 0.971877 -0.233478
vn 0.047739 -0.930644 0.362799
vn -0.047739 0.930644 -0.362799
vn 0.140012 -0.930644 0.338081
vn -0.140012 0.930644 -0.338081
vn -0.047786 -0.930644 0.362793
vn 0.047786 0.930644 -0.362793
vn -0.030753 -0.971877 0.233473
vn 0.030753 0.971877 -0.233473
vn 0.143346 -0.971877 0.186836
vn -0.143346 0.971877 -0.186836
vn 0.186836 -0.971877 -0.143346
vn 0.217571 -0.971877 -0.090104
vn -0.217571 0.971877 0.090104
vn -0.186836 0.971877 0.143346
vn 0.290323 -0.930644 -0.222744
vn -0.290323 0.930644 0.222744
vn 0.143369 -0.971877 -0.186818
vn 0.222744 -0.930644 0.290323
vn -0.222744 0.930644 -0.290323
vn -0.140056 -0.930644 0.338063
vn 0.140056 0.930644 -0.338063
vn 0.338081 -0.930644 -0.140012
vn -0.338081 0.930644 0.140012
vn 0.222781 -0.930644 -0.290295
vn -0.222781 0.930644 0.290295
vn -0.143369 0.971877 0.186818
vn 0.133656 -0.985705 0.102571
vn -0.133656 0.985705 -0.102571
vn -0.090132 -0.971877 0.217559
vn 0.090132 0.971877 -0.217559
vn 0.186818 -0.971877 0.143369
vn -0.186818 0.971877 -0.143369
vn 0.233478 -0.971877 -0.030722
vn -0.233478 0.971877 0.030722
vn 0.090132 -0.971877 -0.217559
vn -0.090132 0.971877 0.217559
vn 0.140056 -0.930644 -0.338063
vn -0.140056 0.930644 0.338063
vn 0.290295 -0.930644 0.222781
vn -0.290295 0.930644 -0.222781
vn -0.143369 -0.971877 0.186818
vn 0.143369 0.971877 -0.186818
vn 0.362799 -0.930644 -0.047739
vn -0.362799 0.930644 0.047739
vn 0.155648 -0.985706 0.064483
vn -0.155648 0.985706 -0.064483
vn 0.217559 -0.971877 0.090132
vn -0.217559 0.971877 -0.090132
vn -0.222781 -0.930644 0.290295
vn 0.222781 0.930644 -0.290295
vn 0.233473 -0.971877 0.030753
vn -0.233473 0.971877 -0.030753
vn 0.030753 -0.971877 -0.233473
vn -0.030753 0.971877 0.233473
vn 0.047786 -0.930644 -0.362793
vn -0.047786 0.930644 0.362793
vn 0.338063 -0.930644 0.140056
vn -0.338063 0.930644 -0.140056
vn -0.186836 -0.971877 0.143346
vn 0.186836 0.971877 -0.143346
vn -0.290323 -0.930644 0.222744
vn 0.290323 0.930644 -0.222744
vn 0.362793 -0.930644 0.047786
vn -0.362793 0.930644 -0.047786
vn -0.021980 -0.985705 -0.167038
vn -0.030722 -0.971877 -0.233478
vn 0.030722 0.971877 0.233478
vn -0.047739 -0.930644 -0.362799
vn 0.047739 0.930644 0.362799
vn -0.217571 -0.971877 0.090104
vn 0.217571 0.971877 -0.090104
vn -0.338081 -0.930644 0.140012
vn 0.338081 0.930644 -0.140012
vn 0.021980 0.985705 0.167038
vn -0.064463 -0.985706 -0.155656
vn -0.090104 -0.971877 -0.217571
vn 0.064463 0.985706 0.155656
vn 0.090104 0.971877 0.217571
vn -0.140012 -0.930644 -0.338081
vn 0.140012 0.930644 0.338081
vn -0.233478 -0.971877 0.030722
vn 0.233478 0.971877 -0.030722
vn -0.362799 -0.930644 0.047739
vn 0.362799 0.930644 -0.047739
vn -0.102554 -0.985705 -0.133669
vn 0.102554 0.985705 0.133669
vn -0.233473 -0.971877 -0.030753
vn 0.233473 0.971877 0.030753
vn -0.143346 -0.971877 -0.186836
vn 0.143346 0.971877 0.186836
vn -0.222744 -0.930644 -0.290323
vn 0.222744 0.930644 0.290323
vn -0.217559 -0.971877 -0.090132
vn 0.217559 0.971877 0.090132
vn -0.362793 -0.930644 -0.047786
vn 0.362793 0.930644 0.047786
vn -0.186818 -0.971877 -0.143369
vn 0.186818 0.971877 0.143369
vn -0.290295 -0.930644 -0.222781
vn 0.290295 0.930644 0.222781
vn -0.338063 -0.930644 -0.140056
vn 0.338063 0.930644 0.140056
usemtl material-0
f 1//1 2//1 3//1
f 2//1 1//1 4//1
f 2//1 4//1 8//1
f 8//1 4//1 13//1
f 8//1 13//1 15//1
f 35//1 36//1 21//1
f 46//1 26//1 41//1
f 55//6 69//12 47//3
f 72//1 41//1 60//1
f 36//1 64//1 57//1
f 65//8 47//3 69//12
f 66//9 45//2 65//8
f 75//14 53//4 66//9
f 77//16 68//11 54//5
f 78//17 54//5 67//10
f 68//11 79//18 55//6
f 69//12 55//6 79//18
f 90//21 91//22 89//20
f 89//20 92//23 76//15
f 92//23 67//10 76//15
f 79//18 68//11 93//24
f 57//1 95//1 81//1
f 98//1 60//1 84//1
f 81//1 109//1 100//1
f 107//28 106//27 114//33
f 108//35 99//25 90//21
f 111//1 103//1 117//1
f 131//46 108//35 123//40
f 124//1 117//1 134//1
f 118//37 135//48 128//44
f 112//32 128//44 129//49
f 129//49 119//38 112//32
f 119//38 129//49 136//50
f 123//40 136//50 131//46
f 124//1 134//1 140//1
f 136//50 123//40 119//38
f 140//1 134//1 144//1
usemtl material-1
f 3//51 2//51 1//51
f 4//51 1//51 2//51
f 8//51 4//51 2//51
f 13//51 4//51 8//51
f 15//51 13//51 8//51
f 41//51 26//51 46//51
f 21//51 36//51 35//51
f 47//37 69//44 55//43
f 60//51 41//51 72//51
f 57//51 64//51 36//51
f 69//44 47//37 65//49
f 65//49 45//32 66//50
f 66//50 53//38 75//46
f 54//31 68//36 77//41
f 67//30 54//31 78//42
f 55//43 79//48 68//36
f 76//34 92//45 89//26
f 93//47 68//36 79//48
f 76//34 67//30 92//45
f 79//48 55//43 69//44
f 81//51 95//51 57//51
f 84//51 60//51 98//51
f 90//19 99//33 108//13
f 100//51 109//51 81//51
f 89//26 91//39 90//19
f 114//25 106//29 107//52
f 117//51 103//51 111//51
f 112//2 119//4 129//8
f 123//7 108//13 131//14
f 134//51 117//51 124//51
f 128//12 135//18 118//3
f 129//8 128//12 112//2
f 136//9 129//8 119//4
f 131//14 136//9 123//7
f 140//51 134//51 124//51
f 119//4 123//7 136//9
f 144//51 134//51 140//51
usemtl material-2
f 2//53 5//54 3//54
f 3//54 6//55 1//55
f 1//56 6//56 3//57
f 1//55 7//58 4//58
f 4//59 7//59 1//56
f 3//57 5//57 2//60
f 3//54 5//54 10//54
f 10//57 5//57 3//57
f 10//54 6//55 3//54
f 3//57 6//56 10//57
f 1//55 6//55 11//55
f 11//56 6//56 1//56
f 4//58 7//58 12//58
f 12//59 7//59 4//59
f 2//53 14//53 9//53
f 9//60 14//60 2//60
f 2//53 16//63 14//53
f 14//60 16//64 2//60
f 15//65 19//63 8//63
f 8//64 19//64 15//66
f 16//63 2//53 8//63
f 8//64 2//60 16//64
f 17//61 18//67 13//61
f 13//62 18//68 17//62
f 8//63 19//63 16//63
f 16//64 19//64 8//64
f 18//67 17//61 20//67
f 20//68 17//62 18//68
f 27//69 15//65 21//69
f 21//70 15//66 27//70
f 22//65 15//65 28//65
f 28//66 15//66 22//66
f 20//67 26//71 18//67
f 18//68 26//72 20//68
f 15//65 27//69 28//65
f 28//66 27//70 15//66
f 21//69 32//73 27//69
f 27//70 32//74 21//70
f 26//71 20//67 31//71
f 31//72 20//68 26//72
f 32//73 21//69 36//73
f 36//74 21//70 32//74
f 31//71 41//75 26//71
f 26//72 41//76 31//72
f 36//73 50//76 32//73
f 32//74 50//75 36//74
f 41//75 31//71 44//75
f 44//76 31//72 41//76
f 50//76 36//73 57//76
f 57//75 36//74 50//75
f 44//75 60//74 41//75
f 41//76 60//73 44//76
f 57//76 71//72 50//76
f 50//75 71//71 57//75
f 60//74 44//75 63//74
f 63//73 44//76 60//73
f 71//72 57//76 81//72
f 81//71 57//75 71//71
f 63//74 84//70 60//74
f 60//73 84//69 63//73
f 81//72 96//68 71//72
f 71//71 96//67 81//71
f 84//70 63//74 88//70
f 88//69 63//73 84//69
f 71//72 96//68 97//68
f 97//67 96//67 71//71
f 88//70 103//66 84//70
f 84//69 103//65 88//69
f 100//68 110//62 96//68
f 96//67 110//61 100//67
f 110//62 100//68 111//62
f 111//61 100//67 110//61
f 124//59 110//62 111//62
f 111//61 110//61 124//58
f 110//62 124//59 126//59
f 126//58 124//58 110//61
f 113//64 103//66 127//64
f 127//63 103//65 113//63
f 103//66 113//64 117//64
f 117//63 113//63 103//65
f 127//64 117//64 113//64
f 113//63 117//63 127//63
f 139//60 134//60 117//64
f 125//59 124//59 140//56
f 140//55 124//58 125//58
f 134//60 139//60 120//60
f 120//53 139//53 134//53
f 117//63 134//53 139//53
f 145//57 144//57 134//60
f 134//53 144//54 145//54
usemtl material-3
f 24//78 25//81 23//77
f 23//80 25//82 24//79
f 30//85 23//77 25//81
f 25//82 23//80 30//86
f 23//77 30//85 33//87
f 33//88 30//86 23//80
f 39//95 38//92 37//91
f 37//94 38//93 39//96
f 29//83 34//89 42//98
f 42//99 34//90 29//84
f 37//91 49//104 39//95
f 39//96 49//105 37//94
f 40//106 37//94 49//105
f 52//111 42//98 34//89
f 34//90 42//99 52//112
f 33//87 43//100 51//109
f 51//110 43//101 33//88
f 48//102 56//113 38//92
f 38//93 56//114 48//103
f 49//104 37//91 40//97
f 40//97 59//117 49//104
f 49//105 59//118 40//106
f 42//98 52//111 61//119
f 61//120 52//112 42//99
f 43//100 62//121 51//109
f 51//110 62//122 43//101
f 56//113 48//102 70//123
f 70//124 48//103 56//114
f 59//117 40//97 58//115
f 58//116 40//106 59//118
f 10//125 52//111 11//107
f 11//108 52//112 10//126
f 73//127 61//119 52//111
f 52//112 61//120 73//128
f 62//121 43//100 74//129
f 74//130 43//101 62//122
f 70//123 80//131 56//113
f 56//114 80//132 70//124
f 82//133 59//117 58//115
f 58//116 59//118 82//134
f 52//111 10//125 73//127
f 73//128 10//126 52//112
f 61//119 73//127 85//137
f 85//138 73//128 61//120
f 74//129 86//139 62//121
f 62//122 86//140 74//130
f 80//131 70//123 94//143
f 94//144 70//124 80//132
f 59//117 82//133 83//135
f 83//136 82//134 59//118
f 10//125 80//131 73//127
f 73//128 80//132 10//126
f 94//143 73//127 80//131
f 73//127 94//143 85//137
f 85//138 94//144 73//128
f 86//139 74//129 87//141
f 87//142 74//130 86//140
f 80//132 73//128 94//144
f 101//146 83//135 82//133
f 82//134 83//136 101//147
f 87//141 104//150 86//139
f 86//140 104//151 87//142
f 82//133 96//145 101//146
f 101//147 96//154 82//134
f 104//150 87//141 105//152
f 105//153 87//142 104//151
f 96//145 110//155 101//146
f 101//146 110//155 115//156
f 101//147 110//157 96//154
f 115//158 110//157 101//147
f 115//156 102//148 101//146
f 101//147 102//149 115//158
f 105//152 121//161 104//150
f 104//151 121//162 105//153
f 110//155 126//165 115//156
f 115//158 126//166 110//157
f 121//161 105//152 122//163
f 122//164 105//153 121//162
f 132//169 116//159 115//156
f 115//158 116//160 132//170
f 138//175 137//173 130//167
f 130//168 137//174 138//176
f 122//163 130//167 121//161
f 121//162 130//168 122//164
f 116//159 132//169 133//171
f 133//172 132//170 116//160
f 137//173 138//175 143//181
f 143//182 138//176 137//174
f 130//167 122//163 138//175
f 138//176 122//164 130//168
f 142//179 137//173 143//181
f 143//182 137//174 142//180
f 133//171 141//177 142//179
f 142//180 141//178 133//172