mtllib new-1.mtl
v -0.046900 0.910878 -0.058986
v -0.062359 0.910878 -0.043528
v -0.027970 0.910878 -0.069914
v -0.046900 0.869010 -0.058986
v -0.006855 0.910878 -0.075570
v -0.027970 0.869010 -0.069914
v -0.062359 0.869010 -0.043528
v 0.015006 0.910878 -0.075567
v -0.006855 0.869010 -0.075570
v -0.045757 0.848075 -0.030786
v -0.034157 0.848075 -0.042377
v 0.015006 0.869010 -0.075567
v -0.019959 0.848075 -0.050570
v -0.073291 0.869010 -0.024600
v -0.073291 0.952747 -0.024600
v 0.036120 0.910878 -0.069911
v 0.036120 0.869010 -0.069911
v -0.004124 0.848075 -0.054815
v -0.058199 0.848075 -0.000754
v -0.053951 0.848075 -0.016587
v -0.058195 0.848075 0.015644
v 0.055048 0.910878 -0.058978
v 0.028107 0.848075 -0.050571
v 0.012271 0.848075 -0.054811
v -0.053954 0.848075 0.031487
v -0.078948 0.952747 -0.003486
v 0.087088 0.952747 0.018386
v 0.070506 0.910878 -0.043520
v 0.055048 0.869010 -0.058978
v 0.042303 0.848075 -0.042369
v -0.045757 0.848075 0.045678
v -0.052002 0.848075 0.034869
v -0.078950 0.869010 0.018376
v -0.078948 0.869010 -0.003486
v -0.073295 0.869010 0.039490
v -0.078950 0.952747 0.018376
v -0.073295 0.952747 0.039490
v 0.087088 0.910878 0.018386
v 0.081435 0.910878 -0.024589
v 0.070506 0.869010 -0.043520
v -0.034166 0.848075 0.057278
v -0.019967 0.848075 0.065471
v -0.062366 0.869010 0.058420
v -0.069977 0.869010 0.045242
v -0.069977 0.952747 0.045242
v -0.062366 0.952747 0.058420
v -0.027980 0.952747 0.084811
v -0.006866 0.952747 0.090468
v 0.087088 0.869010 0.018386
v 0.087090 0.910878 -0.003475
v 0.081435 0.869010 -0.024589
v 0.053897 0.848075 -0.030777
v -0.004134 0.848075 0.069719
v -0.046908 0.869010 0.073879
v -0.046908 0.952747 0.073879
v 0.081431 0.952747 0.039500
v 0.087090 0.869010 -0.003475
v 0.062091 0.848075 -0.016578
v -0.027980 0.869010 0.084811
v -0.006866 0.869010 0.090468
v 0.014995 0.952747 0.090470
v 0.070499 0.952747 0.058428
v 0.081431 0.869010 0.039500
v 0.066331 0.848075 0.015651
v 0.066335 0.848075 -0.000744
v 0.012264 0.848075 0.069715
v 0.055040 0.952747 0.073886
v 0.062091 0.848075 0.031488
v 0.028095 0.848075 0.065479
v 0.014995 0.869010 0.090470
v 0.036110 0.952747 0.084815
v 0.070499 0.869010 0.058428
v 0.053890 0.848075 0.045683
v 0.042297 0.848075 0.057277
v 0.055040 0.869010 0.073886
v 0.036110 0.869010 0.084815
vn 0.000000 -1.000000 0.000000
vn 0.000000 1.000000 0.000000
vn -0.608710 0.000000 -0.793393
vn -0.793314 0.000000 -0.608813
vn 0.608710 0.000000 0.793393
vn 0.793314 0.000000 0.608813
vn -0.382624 0.000000 -0.923904
vn 0.382624 0.000000 0.923904
vn 0.382743 0.000000 -0.923855
vn -0.130462 0.000000 -0.991453
vn 0.130462 0.000000 0.991453
vn -0.430423 -0.707107 -0.561013
vn -0.560958 -0.707107 -0.430496
vn 0.560958 0.707107 0.430496
vn 0.430423 0.707107 0.561013
vn -0.270556 -0.707107 -0.653299
vn 0.270556 0.707107 0.653299
vn -0.382743 0.000000 0.923855
vn 0.130590 0.000000 -0.991436
vn -0.130590 0.000000 0.991436
vn -0.092250 -0.707107 -0.701063
vn 0.092250 0.707107 0.701063
vn -0.653264 -0.707107 -0.270640
vn 0.653264 0.707107 0.270640
vn -0.923855 0.000000 -0.382743
vn 0.923855 0.000000 0.382743
vn 0.092341 -0.707107 -0.701052
vn -0.092341 0.707107 0.701052
vn -0.653264 0.707107 -0.270640
vn 0.653264 -0.707107 0.270640
vn 0.270640 -0.707107 -0.653264
vn -0.270640 0.707107 0.653264
vn -0.701052 -0.707107 -0.092341
vn 0.701052 0.707107 0.092341
vn -0.991436 0.000000 -0.130590
vn 0.991436 0.000000 0.130590
vn 0.608813 0.000000 -0.793314
vn -0.608813 0.000000 0.793314
vn 0.430496 -0.707107 -0.560958
vn -0.430496 0.707107 0.560958
vn -0.701063 -0.707107 0.092250
vn 0.701063 0.707107 -0.092250
vn -0.701052 0.707107 -0.092341
vn 0.701052 -0.707107 0.092341
vn -0.653299 -0.707107 0.270556
vn 0.653299 0.707107 -0.270556
vn -0.701063 0.707107 0.092250
vn 0.701063 -0.707107 -0.092250
vn -0.653299 0.707107 0.270556
vn 0.653299 -0.707107 -0.270556
vn 0.793393 0.000000 -0.608710
vn -0.793393 0.000000 0.608710
vn -0.561013 -0.707107 0.430423
vn -0.615021 -0.704063 0.355029
vn 0.615021 0.704063 -0.355029
vn 0.561013 0.707107 -0.430423
vn -0.991453 0.000000 0.130462
vn 0.991453 0.000000 -0.130462
vn -0.561013 0.707107 0.430423
vn 0.561013 -0.707107 -0.430423
vn 0.965909 0.000000 0.258882
vn -0.965909 0.000000 -0.258882
vn 0.923904 0.000000 -0.382624
vn -0.923904 0.000000 0.382624
vn -0.430496 -0.707107 0.560958
vn 0.430496 0.707107 -0.560958
vn -0.866058 0.000000 0.499944
vn 0.866058 0.000000 -0.499944
vn -0.270640 -0.707107 0.653264
vn 0.270640 0.707107 -0.653264
vn -0.092341 -0.707107 0.701052
vn 0.092341 0.707107 -0.701052
vn 0.092250 -0.707107 0.701063
vn -0.092250 0.707107 -0.701063
vn 0.560958 -0.707107 0.430496
vn -0.560958 0.707107 -0.430496
vn 0.270556 -0.707107 0.653299
vn -0.270556 0.707107 -0.653299
vn 0.430423 -0.707107 0.561013
vn -0.430423 0.707107 -0.561013
usemtl material-0
f 4//3 2//4 1//3
f 1//5 2//6 4//5
f 6//7 1//3 3//7
f 3//8 1//5 6//8
f 2//4 4//3 7//4
f 7//6 4//5 2//6
f 1//3 6//7 4//3
f 4//5 6//8 1//5
f 9//10 3//7 5//10
f 5//11 3//8 9//11
f 3//7 9//10 6//7
f 6//8 9//11 3//8
f 4//12 10//13 7//13
f 7//14 10//14 4//15
f 6//16 11//12 4//12
f 4//15 11//15 6//17
f 12//19 5//10 8//19
f 8//20 5//11 12//20
f 5//10 12//19 9//10
f 9//11 12//20 5//11
f 9//21 13//16 6//16
f 6//17 13//17 9//22
f 10//13 4//12 11//12
f 11//15 4//15 10//14
f 10//13 14//23 7//13
f 7//14 14//24 10//14
f 11//12 6//16 13//16
f 13//17 6//17 11//15
f 8//19 17//9 12//19
f 12//20 17//18 8//20
f 12//27 18//21 9//21
f 9//22 18//22 12//28
f 13//16 9//21 18//21
f 18//22 9//22 13//17
f 19//1 10//1 11//1
f 11//2 10//2 19//2
f 14//23 10//13 20//23
f 20//24 10//14 14//24
f 15//25 7//4 14//25
f 14//26 7//6 15//26
f 21//1 11//1 13//1
f 13//2 11//2 21//2
f 17//9 8//19 16//9
f 16//18 8//20 17//18
f 23//31 12//27 17//31
f 17//32 12//28 23//32
f 18//21 12//27 24//27
f 24//28 12//28 18//22
f 25//1 13//1 18//1
f 18//2 13//2 25//2
f 10//1 19//1 20//1
f 19//1 11//1 21//1
f 20//2 19//2 10//2
f 21//2 11//2 19//2
f 19//33 14//23 20//23
f 20//24 14//24 19//34
f 21//1 13//1 25//1
f 25//2 13//2 21//2
f 29//37 16//9 22//37
f 22//38 16//18 29//38
f 16//9 29//37 17//9
f 17//18 29//38 16//18
f 12//27 23//31 24//27
f 24//28 23//32 12//28
f 17//31 30//39 23//31
f 23//32 30//40 17//32
f 31//1 18//1 24//1
f 24//2 18//2 31//2
f 25//1 18//1 32//1
f 32//1 18//1 31//1
f 32//2 18//2 25//2
f 31//2 18//2 32//2
f 33//41 19//33 21//41
f 21//42 19//34 33//42
f 14//23 19//33 34//33
f 34//34 19//34 14//24
f 26//35 14//25 34//35
f 34//36 14//26 26//36
f 35//45 21//41 25//45
f 25//46 21//42 35//46
f 40//51 22//37 28//51
f 28//52 22//38 40//52
f 22//37 40//51 29//37
f 29//38 40//52 22//38
f 30//39 17//31 29//39
f 29//40 17//32 30//40
f 41//1 24//1 23//1
f 23//2 24//2 41//2
f 42//1 23//1 30//1
f 30//2 23//2 42//2
f 31//1 24//1 41//1
f 41//2 24//2 31//2
f 43//53 25//45 32//54
f 32//55 25//46 43//56
f 43//53 32//54 31//53
f 31//56 32//55 43//56
f 19//33 33//41 34//33
f 34//34 33//42 19//34
f 21//41 35//45 33//41
f 33//42 35//46 21//42
f 25//45 44//54 35//45
f 27//61 49//36 38//36
f 38//35 49//35 27//62
f 51//63 28//51 39//63
f 39//64 28//52 51//64
f 28//51 51//63 40//51
f 40//52 51//64 28//52
f 52//60 29//39 40//60
f 40//59 29//40 52//59
f 29//39 52//60 30//39
f 30//40 52//59 29//40
f 41//1 23//1 42//1
f 42//2 23//2 41//2
f 42//1 30//1 53//1
f 53//2 30//2 42//2
f 54//65 31//53 41//65
f 41//66 31//56 54//66
f 44//54 25//45 43//53
f 43//56 25//46 44//55
f 31//53 54//65 43//53
f 43//56 54//66 31//56
f 36//57 34//35 33//57
f 33//58 34//36 36//58
f 37//64 33//57 35//64
f 35//63 33//58 37//63
f 45//67 35//64 44//67
f 44//68 35//63 45//68
f 35//46 44//55 25//46
f 57//58 38//36 49//36
f 49//35 38//35 57//57
f 50//58 51//63 39//63
f 39//64 51//64 50//57
f 58//50 40//60 51//50
f 51//49 40//59 58//49
f 40//60 58//50 52//60
f 52//59 58//49 40//59
f 53//1 30//1 52//1
f 52//2 30//2 53//2
f 59//69 41//65 42//69
f 42//70 41//66 59//70
f 60//71 42//69 53//71
f 53//72 42//70 60//72
f 41//65 59//69 54//65
f 54//66 59//70 41//66
f 46//52 44//67 43//52
f 43//51 44//68 46//51
f 55//38 43//52 54//38
f 54//37 43//51 55//37
f 49//36 56//26 63//26
f 63//25 56//25 49//35
f 38//36 57//58 50//58
f 50//57 57//57 38//35
f 64//44 57//48 49//44
f 49//43 57//47 64//43
f 51//63 50//58 57//58
f 57//57 50//57 51//64
f 51//50 65//48 58//50
f 58//49 65//47 51//49
f 66//1 52//1 58//1
f 58//2 52//2 66//2
f 53//1 52//1 66//1
f 66//2 52//2 53//2
f 42//69 60//71 59//69
f 59//70 60//72 42//70
f 66//73 60//71 53//71
f 53//72 60//72 66//74
f 47//18 54//38 59//18
f 59//9 54//37 47//9
f 48//20 59//18 60//20
f 60//19 59//9 48//19
f 68//30 49//44 63//30
f 63//29 49//43 68//29
f 57//48 64//44 65//48
f 65//47 64//43 57//47
f 49//44 68//30 64//44
f 64//43 68//29 49//43
f 65//48 51//50 57//48
f 57//47 51//49 65//47
f 69//1 58//1 65//1
f 65//2 58//2 69//2
f 66//1 58//1 69//1
f 69//2 58//2 66//2
f 60//71 66//73 70//73
f 70//74 66//74 60//72
f 61//11 60//20 70//11
f 70//10 60//19 61//10
f 63//26 62//6 72//6
f 72//4 62//4 63//25
f 63//30 73//75 68//30
f 68//29 73//76 63//29
f 74//1 65//1 64//1
f 64//2 65//2 74//2
f 73//1 64//1 68//1
f 68//2 64//2 73//2
f 69//1 65//1 74//1
f 74//2 65//2 69//2
f 69//77 70//73 66//73
f 66//74 70//74 69//78
f 73//75 63//30 72//75
f 72//76 63//29 73//76
f 72//6 67//5 75//5
f 75//3 67//3 72//4
f 74//1 64//1 73//1
f 73//2 64//2 74//2
f 74//79 76//77 69//77
f 69//78 76//78 74//80
f 70//73 69//77 76//77
f 76//78 69//78 70//74
f 71//8 70//11 76//8
f 76//7 70//10 71//7
f 75//79 73//75 72//75
f 72//76 73//76 75//80
f 75//5 71//8 76//8
f 76//7 71//7 75//3
f 73//75 75//79 74//79
f 74//80 75//80 73//76
f 76//77 74//79 75//79
f 75//80 74//80 76//78